<?xml version="1.0" standalone="no"?>
<!DOCTYPE svg PUBLIC "-//W3C//DTD SVG 20010904//EN"
 "http://www.w3.org/TR/2001/REC-SVG-20010904/DTD/svg10.dtd">
<svg version="1.0" xmlns="http://www.w3.org/2000/svg"
 width="512.000000pt" height="512.000000pt" viewBox="0 0 512.000000 512.000000"
 preserveAspectRatio="xMidYMid meet">

<style>
  /* Animate fill through shades of blue */
  @keyframes waveColor {
    0% { fill: #0077be; }
    33% { fill: #00aaff; }
    66% { fill: #005f99; }
    100% { fill: #66ccff; }
  }
  .animated-fill {
    animation: waveColor 5s infinite alternate ease-in-out;
  }
</style>

<g transform="translate(0.000000,512.000000) scale(0.100000,-0.100000)"
fill="#000000" stroke="none">
<path class="animated-fill" d="M2320 5064 c-89 -7 -257 -34 -370 -60 -599 -139 -1146 -526 -1493
-1054 -80 -122 -200 -362 -253 -505 -127 -346 -177 -780 -133 -1170 63 -562
314 -1072 734 -1490 496 -494 1141 -747 1845 -722 324 12 585 70 870 194 657
285 1151 828 1380 1514 46 139 81 285 106 449 24 156 24 496 0 670 -60 439
-225 841 -491 1195 -386 514 -988 869 -1625 960 -104 15 -463 27 -570 19z
m482 -264 c84 -11 198 -31 253 -44 313 -77 668 -254 905 -451 92 -77 270 -259
331 -340 260 -340 428 -762 468 -1175 8 -85 8 -112 -2 -99 -2 2 -24 33 -49 69
-67 95 -180 203 -288 275 -248 166 -536 216 -854 149 -159 -33 -396 -130 -576
-234 l-75 -44 -115 3 c-197 4 -287 -28 -566 -201 -93 -58 -203 -124 -244 -146
-171 -93 -405 -166 -679 -213 -69 -11 -134 -25 -144 -31 -29 -15 -39 -54 -23
-91 26 -62 161 -166 299 -230 37 -17 67 -36 67 -41 -1 -25 -255 -125 -395
-156 -126 -28 -291 -31 -385 -6 -206 53 -347 195 -394 397 -41 181 -45 460
-10 689 105 693 477 1261 1064 1625 267 165 580 268 940 308 105 12 331 5 472
-13z m1188 -1820 c106 -27 245 -95 327 -161 131 -103 237 -266 284 -434 30
-105 32 -306 5 -404 -46 -166 -157 -319 -294 -405 -84 -52 -149 -71 -254 -71
-91 0 -96 -1 -81 -17 9 -10 41 -28 72 -40 46 -18 76 -22 171 -22 99 0 126 3
190 26 41 14 77 25 79 23 6 -7 -113 -195 -162 -256 -67 -82 -108 -101 -232
-107 -82 -4 -115 0 -180 17 -194 54 -355 180 -434 341 -87 178 -92 331 -17
485 152 310 555 312 731 4 l25 -44 0 50 c0 217 -156 396 -400 461 -92 24 -269
22 -380 -4 -252 -61 -472 -235 -589 -470 -93 -185 -93 -441 -1 -639 98 -212
284 -383 514 -472 148 -57 242 -74 402 -69 73 1 130 0 126 -3 -199 -167 -500
-317 -777 -389 -221 -57 -289 -65 -560 -65 -266 0 -335 8 -544 61 -293 74
-616 238 -865 438 -104 84 -299 281 -369 373 -26 34 -47 63 -47 65 0 2 62 3
138 4 215 1 367 42 617 169 203 102 375 215 777 512 335 247 609 409 856 508
93 36 161 57 362 110 179 48 274 108 317 202 25 55 24 82 -4 115 -22 25 -68
28 -303 20 -118 -5 -217 -7 -219 -5 -5 4 90 46 154 68 171 58 395 69 565 25z
m-1925 -889 c-11 -10 -81 -70 -155 -133 -428 -362 -633 -480 -912 -525 -175
-29 -336 6 -421 91 -29 29 -107 166 -107 189 0 3 25 -5 57 -19 200 -89 456
-86 713 6 185 66 471 203 720 344 63 36 117 65 120 66 2 0 -4 -8 -15 -19z"/>
<path class="animated-fill" d="M2003 4321 c-80 -20 -160 -78 -188 -137 -44 -94 -38 -195 20 -306 37
-71 44 -118 21 -137 -8 -7 -56 -16 -106 -22 -121 -12 -137 -16 -192 -51 -63
-39 -259 -275 -385 -463 -88 -131 -79 -185 41 -263 239 -153 241 -155 206
-183 -14 -10 -83 -48 -154 -84 -123 -62 -132 -65 -201 -65 -158 0 -347 -53
-502 -142 -106 -61 -128 -86 -127 -153 1 -64 38 -146 88 -200 29 -30 40 -35
80 -35 74 0 234 89 411 229 65 51 89 76 146 153 11 16 56 45 103 67 46 22 125
63 176 91 l94 52 34 -16 c32 -16 34 -19 29 -54 -19 -124 -20 -142 -4 -142 42
0 220 70 382 150 242 120 272 140 283 187 5 21 14 58 21 83 6 25 19 80 28 123
l16 78 62 34 c34 19 68 35 76 35 8 0 45 -21 83 -46 128 -86 191 -102 253 -64
37 22 65 72 104 187 15 46 42 103 59 127 18 24 34 62 37 85 3 22 11 41 17 41
6 0 69 32 140 70 128 69 131 70 205 70 244 1 620 168 644 287 11 55 -36 189
-87 250 -42 50 -81 52 -171 10 -89 -43 -251 -149 -343 -227 -37 -31 -91 -89
-120 -130 -51 -71 -59 -78 -165 -134 -103 -54 -114 -57 -142 -47 -112 40 -226
-19 -229 -117 -1 -37 -2 -39 -71 -68 -38 -16 -73 -30 -76 -32 -4 -2 -44 35
-90 81 -110 110 -150 135 -267 166 -67 18 -98 31 -100 42 -2 12 8 18 39 22 57
7 86 38 100 106 10 47 8 169 -3 222 -2 11 17 15 80 19 59 4 86 9 92 20 22 35
10 49 -70 79 -30 11 -80 41 -110 66 -30 26 -71 55 -90 65 -41 21 -132 32 -177
21z m757 -988 c0 -12 -39 -73 -46 -73 -8 0 -33 32 -34 42 0 9 50 37 68 38 6 0
12 -3 12 -7z m-1140 -187 c0 -167 5 -194 37 -202 38 -10 114 23 372 165 132
73 246 131 253 129 13 -5 -41 -38 -290 -177 -240 -134 -255 -141 -312 -141
-28 0 -66 7 -86 15 -34 14 -174 131 -174 145 0 9 183 198 193 199 4 1 7 -59 7
-133z"/>
</g>
</svg>
